<?xml version="1.0" encoding="utf-8"?>
<!-- Generator: Adobe Illustrator 25.0.1, SVG Export Plug-In . SVG Version: 6.00 Build 0)  -->
<svg version="1.1" id="Layer_1" xmlns="http://www.w3.org/2000/svg" xmlns:xlink="http://www.w3.org/1999/xlink" x="0px" y="0px"
	 viewBox="0 0 123.5 123.5" style="enable-background:new 0 0 123.5 123.5;" xml:space="preserve">
<style type="text/css">
	.st0{fill:#0000F9;}
	.st1{fill:#F900E7;}
	.st2{fill:#A0815C;}
	.st3{fill:#D8D7DA;}
	.st4{fill:#FFFFFF;}
</style>
<g>
	<path d="M108.9,123.5c8.1,0,14.7-6.6,14.7-14.8v-94c0-8.2-6.6-14.8-14.7-14.8h-94C6.8-0.1,0.1,6.5,0.1,14.7v94
		c0,8.2,6.6,14.8,14.8,14.8H108.9z"/>
	<path class="st0" d="M14.9,2.4C8.1,2.4,2.6,7.9,2.6,14.7v94c0,6.8,5.5,12.3,12.3,12.3h94c6.8,0,12.3-5.5,12.3-12.3v-94
		c0-6.8-5.5-12.3-12.3-12.3C108.9,2.4,14.9,2.4,14.9,2.4z"/>
</g>
<g>
	<g>
		<path class="st1" d="M96.1,27.5L96.1,27.5c7.1,7.1,7.1,18.7,0,25.9L53.6,95.9c-7.1,7.1-18.7,7.1-25.9,0l0,0
			c-7.1-7.1-7.1-18.7,0-25.9l42.5-42.5C77.4,20.4,89,20.4,96.1,27.5z"/>
		<path class="st2" d="M77.2,28.9l0.9,0.9c0.8,0.8,0.8,2,0,2.8l-4.6,4.6c-0.8,0.8-2,0.8-2.8,0l-0.9-0.9c-0.8-0.8-0.8-2,0-2.8
			l4.6-4.6C75.2,28.1,76.4,28.1,77.2,28.9z"/>
		<path class="st2" d="M93.8,45.5l0.9,0.9c0.8,0.8,0.8,2,0,2.8l-4.6,4.6c-0.8,0.8-2,0.8-2.8,0l-0.9-0.9c-0.8-0.8-0.8-2,0-2.8
			l4.6-4.6C91.8,44.8,93,44.8,93.8,45.5z"/>
		<path class="st3" d="M89.6,46.9l-0.9-8.3L85,34.9L76.7,34l-2.8,2.8l12.9,12.9L89.6,46.9z"/>
		<path class="st2" d="M46.7,94.6l-0.9-0.9c-0.8-0.8-0.8-2,0-2.8l4.6-4.6c0.8-0.8,2-0.8,2.8,0l0.9,0.9c0.8,0.8,0.8,2,0,2.8l-4.6,4.6
			C48.7,95.3,47.4,95.3,46.7,94.6z"/>
		<path class="st2" d="M30,77.9L29.1,77c-0.8-0.8-0.8-2,0-2.8l4.6-4.6c0.8-0.8,2-0.8,2.8,0l0.9,0.9c0.8,0.8,0.8,2,0,2.8l-4.6,4.6
			C32,78.7,30.8,78.7,30,77.9z"/>
		<path class="st3" d="M34.2,76.5l0.9,8.3l3.7,3.7l8.3,0.9l2.8-2.8l-13-12.9L34.2,76.5z"/>
	</g>
	<g>
		<path d="M97.1,26.6c-7.7-7.7-20.1-7.7-27.8,0L26.8,69.1c-7.7,7.7-7.7,20.1,0,27.8s20.1,7.7,27.8,0l0,0l42.5-42.5
			C104.7,46.7,104.7,34.3,97.1,26.6L97.1,26.6z M95.2,52.5L52.7,95c-6.6,6.6-17.4,6.6-24,0s-6.6-17.4,0-24l42.5-42.5
			c6.6-6.6,17.4-6.6,24,0C101.8,35.1,101.8,45.8,95.2,52.5z"/>
		<path d="M95.7,45.5l-0.9-0.9c-1.1-1.1-2.8-1.3-4.1-0.5L90,38.5c0-0.3-0.2-0.6-0.4-0.8L86,34c-0.2-0.2-0.5-0.3-0.8-0.4L79.5,33
			c0.8-1.3,0.6-3-0.5-4.1L78.1,28c-1.3-1.3-3.4-1.3-4.6,0l-4.6,4.6c-1.3,1.3-1.3,3.4,0,4.6l0.9,0.9c1.1,1.1,2.8,1.3,4.1,0.4
			l11.2,11.2c-0.9,1.3-0.7,3,0.4,4.1l0.9,0.9c1.3,1.3,3.4,1.3,4.6,0l4.6-4.6C96.9,48.9,96.9,46.8,95.7,45.5L95.7,45.5L95.7,45.5z
			 M72.5,36.3c-0.2,0.2-0.7,0.3-0.9,0l0,0l-0.9-0.9c-0.2-0.3-0.2-0.7,0-0.9l4.6-4.6c0.2-0.2,0.7-0.2,0.9,0l0.9,0.9
			c0.2,0.3,0.2,0.7,0,0.9L72.5,36.3z M75.8,36.8l1.4-1.4l7.2,0.8l3,3l0.8,7.2l-1.4,1.4L75.8,36.8z M93.8,48.3l-4.6,4.6
			c-0.2,0.2-0.7,0.2-0.9,0l-1-0.9c-0.2-0.3-0.2-0.7,0-0.9l4.6-4.6c0.3-0.2,0.7-0.2,0.9,0l0.9,0.9C94,47.7,94,48.1,93.8,48.3
			L93.8,48.3z"/>
		<path d="M83.2,38.6c-0.5,0.5-0.5,1.3,0,1.8s1.3,0.5,1.8,0s0.5-1.3,0-1.8S83.7,38.1,83.2,38.6L83.2,38.6z"/>
		<path d="M55,86.2l-0.9-0.9C53,84.2,51.3,84,50,84.9L38.8,73.7c0.9-1.3,0.7-3-0.4-4.1l-0.9-0.9c-1.3-1.3-3.4-1.3-4.6,0l-4.6,4.6
			c-1.3,1.3-1.3,3.4,0,4.6l0.9,0.9c1.1,1.1,2.8,1.3,4.1,0.5l0.6,5.7c0,0.3,0.2,0.6,0.4,0.8l3.7,3.7c0.2,0.2,0.5,0.3,0.8,0.4l5.7,0.6
			c-0.8,1.3-0.6,3,0.5,4.1l0.9,0.9c1.3,1.3,3.4,1.3,4.6,0l0,0l4.6-4.6C56.3,89.6,56.3,87.5,55,86.2L55,86.2z M31.9,77
			c-0.3,0.2-0.7,0.2-0.9,0l-1-1c-0.2-0.2-0.2-0.7,0-0.9l4.6-4.6c0.3-0.2,0.7-0.2,0.9,0l0.9,0.9c0.2,0.2,0.3,0.7,0,0.9l0,0L31.9,77z
			 M39.4,87.3l-3-3L35.6,77l1.4-1.4l11,11.1l-1.4,1.4L39.4,87.3z M53.1,89l-4.6,4.6c-0.3,0.2-0.7,0.2-0.9,0l-0.9-0.9
			c-0.2-0.3-0.2-0.7,0-0.9l4.6-4.6c0.3-0.2,0.7-0.2,0.9,0l0.9,0.9C53.4,88.3,53.4,88.7,53.1,89L53.1,89z"/>
		<path d="M38.8,83c-0.5,0.5-0.5,1.3,0,1.8s1.3,0.5,1.8,0s0.5-1.3,0-1.8l0,0C40.1,82.5,39.3,82.5,38.8,83L38.8,83z"/>
	</g>
</g>
<g>
	<g>
		<g>
			<path class="st4" d="M64,63.3l-1.1-1.1c-0.2-0.2-0.6-0.2-0.8,0l-1.1,1.1c-0.4,0.4-0.1,1,0.4,1h2.3C64.1,64.3,64.4,63.7,64,63.3z"
				/>
		</g>
	</g>
	<g>
		<g>
			<path class="st4" d="M59,56.3c-1.6,0-2.9,1.3-2.9,2.9c0,1.6,1.3,2.9,2.9,2.9c1.6,0,2.9-1.3,2.9-2.9C61.9,57.6,60.6,56.3,59,56.3z
				 M59,60.9c-0.9,0-1.7-0.8-1.7-1.7c0-0.9,0.8-1.7,1.7-1.7c0.9,0,1.7,0.8,1.7,1.7C60.8,60.1,60,60.9,59,60.9z"/>
		</g>
	</g>
	<g>
		<g>
			<path class="st4" d="M65.9,56.3c-1.6,0-2.9,1.3-2.9,2.9c0,1.6,1.3,2.9,2.9,2.9c1.6,0,2.9-1.3,2.9-2.9
				C68.8,57.6,67.5,56.3,65.9,56.3z M65.9,60.9c-0.9,0-1.7-0.8-1.7-1.7c0-0.9,0.8-1.7,1.7-1.7c0.9,0,1.7,0.8,1.7,1.7
				C67.6,60.1,66.8,60.9,65.9,60.9z"/>
		</g>
	</g>
	<g>
		<g>
			<path class="st4" d="M70.9,59.8c0.6-2.9-0.3-5.8-2.3-7.8v0c-1.6-1.6-3.8-2.5-6.1-2.5c-2.3,0-4.4,0.9-6.1,2.5
				c-2.1,2.1-2.9,5-2.3,7.8c-0.2,0.7-0.2,1.4,0,2.1c0.4,1.2,1.4,2.1,2.6,2.3c0.1,0,0.2,0,0.4,0c0.1,0,0.2,0,0.2,0v2.2
				c0,0.7,0.4,1.3,1,1.6c0.9,0.4,2.4,0.9,4.1,0.9c0,0,0,0,0,0s0,0,0,0c1.7,0,3.2-0.5,4.1-0.9c0.6-0.3,1-0.9,1-1.6v-2.2
				c0.1,0,0.2,0,0.2,0c0.3,0,0.3,0,0.5-0.1c1.3-0.3,2.2-1.1,2.6-2.4C71.1,61.2,71.1,60.4,70.9,59.8z M69.8,61.5
				c-0.2,0.8-0.9,1.4-1.8,1.6c-0.5,0-0.4,0.1-0.9,0c-0.4-0.1-0.7,0.2-0.7,0.6v2.8c0,0.2-0.1,0.4-0.3,0.5c-0.2,0.1-0.5,0.2-0.8,0.3
				v-1.2c0-0.3-0.2-0.6-0.6-0.6c-0.3,0-0.6,0.3-0.6,0.6v1.5c-0.4,0.1-0.8,0.1-1.2,0.1v-1.7c0-0.3-0.2-0.6-0.6-0.6
				c-0.3,0-0.6,0.3-0.6,0.6v1.7c-0.4,0-0.8-0.1-1.2-0.2v-1.5c0-0.3-0.2-0.6-0.6-0.6c-0.3,0-0.6,0.3-0.6,0.6v1.2
				c-0.3-0.1-0.6-0.2-0.8-0.3c-0.2-0.1-0.3-0.3-0.3-0.5l0-2.8c0-0.4-0.3-0.6-0.7-0.6c-0.5,0.1-0.4,0-0.9,0c-0.8-0.2-1.5-0.7-1.7-1.5
				C55,61,55,60.5,55.2,60c0-0.1,0.1-0.2,0-0.3c-0.6-2.6,0.2-5.1,2-6.9c1.4-1.4,3.3-2.2,5.3-2.2c2,0,3.9,0.8,5.3,2.2
				c1.8,1.8,2.6,4.4,2,6.9c0,0.1,0,0.2,0,0.3C69.9,60.5,70,61,69.8,61.5z"/>
		</g>
	</g>
</g>
</svg>
